# xmcd CD database file
#
# Track frame offsets:
#	150
#	42899
#	58379
#	76744
#	107187
#	145092
#	158434
#	186994
#	215357
#	245654
#	265659
#	300602
#
# Disc length: 4625 seconds
#
# Revision: 0
# Processed by: cddbd v1.5.1PL0 Copyright (c) Steve Scherf et al.
# Submitted via: CDex 1.51
#
DISCID=a1120f0c
DTITLE=All-State Music Festival - All-State Music Festival 1999 [CD1]
DYEAR=1999
DGENRE=Jazz
TTITLE0=Joe Davidian (Piano) - A Medley by Himself
TTITLE1=For the Birds - Davidian
TTITLE2=You Gotta Try - Nestico
TTITLE3=Blues du Jour - Fedcheck
TTITLE4=Manteca - Tamorra
TTITLE5=Here's That Rainy Day - Barton
TTITLE6=Front Burner - Nestico
TTITLE7=My One and Only Love - Wood
TTITLE8=Cream of the Crop - Beach
TTITLE9=Moonlight in Vermont - Comstock
TTITLE10=Life of the Party - Mintzer
TTITLE11=Mercy, Mercy, Mercy - Wilson
EXTD=YEAR: 1999
EXTT0=
EXTT1=
EXTT2=
EXTT3=
EXTT4=
EXTT5=
EXTT6=
EXTT7=
EXTT8=
EXTT9=
EXTT10=
EXTT11=
PLAYORDER=
